Patient4_TMGait_0pt4_02_left_29_GRF.mot
version=1
nRows=58
nColumns=19
inDegrees=no
endheader
time	F1x	F1y	F1z	M1x	M1y	M1z	F2x	F2y	F2z	M2x	M2y	M2z	EC1x	EC1y	EC1z	EC2x	EC2y	EC2z
38.89	11.3384	12.9517	2.3303	-3.7995	1.3198	10.4046	-31.0405	746.8702	-69.7862	293.6848	95.8338	870.3822	-0.0592	0.0182	-0.0073	-0.0462	0.0165	0.9585
38.9034	7.6725	9.2565	1.6084	-2.7783	0.84754	7.7472	-30.0685	739.4946	-67.3778	291.3002	91.7117	856.4325	-0.0592	0.0182	-0.0073	-0.0462	0.0165	0.9585
38.9169	4.5638	6.2056	0.9761	-1.9269	0.47035	5.5746	-28.1551	732.5735	-64.7527	289.1015	86.9734	842.5351	-0.0592	0.0182	-0.0073	-0.0462	0.0165	0.9585
38.9303	2.1858	3.9575	0.48464	-1.2935	0.19058	4.0041	-25.4408	727.5775	-62.114	287.6429	81.9536	830.5955	-0.0592	0.0182	-0.0073	-0.0462	0.0165	0.9585
38.9437	0.53829	2.4616	0.13906	-0.86863	0.00093354	2.981	-22.1871	725.7814	-59.6643	287.414	77.0038	822.2115	-0.0592	0.0182	-0.0073	-0.0462	0.0165	0.9585
38.9571	-0.49533	1.5712	-0.07396	-0.61422	-0.11999	2.3841	-18.6608	727.9419	-57.5157	288.7037	72.3656	818.3315	-0.0592	0.0182	-0.0073	-0.0462	0.0165	0.9585
38.9706	-1.0707	1.1114	-0.17929	-0.48045	-0.19533	2.0645	-15.0907	734.0913	-55.7515	291.5174	68.2137	819.0597	-0.0592	0.0182	-0.0073	-0.0462	0.0165	0.9585
38.984	-1.3308	0.88649	-0.20142	-0.4094	-0.24781	1.8496	-11.6453	743.5026	-54.3744	295.561	64.606	823.6379	-0.0592	0.0182	-0.0073	-0.0462	0.0165	0.9585
38.9974	-1.4173	0.71263	-0.16482	-0.34428	-0.30171	1.5907	-8.4281	754.7882	-53.3687	300.2736	61.5497	830.5834	-0.0592	0.0182	-0.0073	-0.0462	0.0165	0.9585
39.0109	-1.4158	0.42075	-0.08761	-0.23184	-0.37217	1.1228	-5.4855	766.1152	-52.6715	304.9192	58.983	837.9216	-0.0592	0.0182	-0.0073	-0.0462	0.0165	0.9585
39.0243	-1.3912	-0.13302	0.015128	-0.026288	-0.46559	0.31153	-2.8298	775.5767	-52.2177	308.7331	56.8286	843.6027	-0.0592	0.0182	-0.0073	-0.0462	0.0165	0.9585
39.0377	-1.3649	-1.0669	0.12613	0.30859	-0.57297	-0.95442	-0.43051	781.5704	-51.917	311.0702	54.9764	845.9066	-0.0592	0.0182	-0.0073	-0.0462	0.0165	0.9585
39.0511	-1.3307	-2.4317	0.23514	0.78743	-0.67986	-2.7188	1.7422	783.014	-51.7176	311.4942	53.3608	843.6829	-0.0592	0.0182	-0.0073	-0.0462	0.0165	0.9585
39.0646	-1.2517	-4.1667	0.31709	1.3886	-0.74064	-4.9036	3.7148	779.4938	-51.6086	309.8404	51.9605	836.4939	-0.0592	0.0182	-0.0073	-0.0462	0.0165	0.9585
39.078	-1.0406	-6.0693	0.34003	2.0438	-0.68654	-7.2692	5.5304	771.3759	-51.6214	306.2578	50.7927	824.7235	-0.0592	0.0182	-0.0073	-0.0462	0.0165	0.9585
39.0914	-0.5999	-7.7061	0.25334	2.6074	-0.42717	-9.2908	7.251	759.7364	-51.7926	301.1848	49.8746	809.4945	-0.0592	0.0182	-0.0073	-0.0462	0.0165	0.9585
39.1049	0.19947	-8.3684	0.0058046	2.8336	0.14349	-10.1207	8.946	746.1088	-52.144	295.2499	49.206	792.3946	-0.0592	0.0182	-0.0073	-0.0462	0.0165	0.9585
39.1183	1.4843	-7.0123	-0.46445	2.3589	1.144	-8.4955	10.6812	732.1792	-52.6721	289.1406	48.7595	775.1692	-0.0592	0.0182	-0.0073	-0.0462	0.0165	0.9585
39.1317	3.3548	-2.2466	-1.2124	0.69767	2.6735	-2.7289	12.5136	719.4234	-53.372	283.4553	48.5049	759.3385	-0.0592	0.0182	-0.0073	-0.0462	0.0165	0.9585
39.1451	5.837	7.6098	-2.2768	-2.735	4.785	9.2168	14.4407	708.7816	-54.2313	278.5759	48.4232	745.8749	-0.0592	0.0182	-0.0073	-0.0462	0.0165	0.9585
39.1586	8.8027	24.349	-3.6514	-8.5587	7.4235	29.5235	16.3982	700.4161	-55.217	274.5742	48.4979	734.9646	-0.0592	0.0182	-0.0073	-0.0462	0.0165	0.9585
39.172	11.9027	49.4869	-5.2505	-17.2951	10.3548	60.0377	18.2534	693.6262	-56.2451	271.18	48.6876	725.9239	-0.0592	0.0182	-0.0073	-0.0462	0.0165	0.9585
39.1854	14.4359	83.6485	-6.8585	-29.1512	13.065	101.5396	19.8206	686.9265	-57.1592	267.8152	48.8994	717.284	-0.0592	0.0182	-0.0073	-0.0462	0.0165	0.9585
39.1989	15.2576	125.6366	-8.0632	-43.6982	14.6577	152.5911	20.9079	678.323	-57.7407	263.7092	48.9868	707.0478	-0.0592	0.0182	-0.0073	-0.0462	0.0165	0.9585
39.2123	12.9924	171.4872	-8.2227	-59.5387	13.8972	208.4214	21.3571	665.7721	-57.7542	258.0808	48.7768	693.1464	-0.0592	0.0182	-0.0073	-0.0462	0.0165	0.9585
39.2257	7.6845	215.0352	-6.5124	-74.4851	9.8516	261.6077	21.1325	647.7554	-57.0298	250.3667	48.117	673.9968	-0.0592	0.0182	-0.0073	-0.0462	0.0165	0.9585
39.2391	1.0823	251.1027	-2.7909	-86.7345	3.0383	305.7231	20.3564	623.8771	-55.5328	240.4442	46.932	649.1074	-0.0592	0.0182	-0.0073	-0.0462	0.0165	0.9585
39.2526	-5.2502	278.8979	2.1501	-96.037	-5.0805	339.5543	19.2914	594.9421	-53.4353	228.6451	45.2953	619.1714	-0.0592	0.0182	-0.0073	-0.0462	0.0165	0.9585
39.266	-10.5783	300.836	7.6617	-103.2656	-13.4501	365.9388	18.2796	562.3197	-50.9968	215.5173	43.3304	585.4574	-0.0592	0.0182	-0.0073	-0.0462	0.0165	0.9585
39.2794	-14.6658	320.319	13.0256	-109.6435	-21.1595	388.9504	17.5708	527.3792	-48.3432	201.6083	41.0595	549.2781	-0.0592	0.0182	-0.0073	-0.0462	0.0165	0.9585
39.2929	-17.6749	340.3004	17.8851	-116.2214	-27.8216	412.1964	17.2859	491.1247	-45.4093	187.3298	38.3679	511.6189	-0.0592	0.0182	-0.0073	-0.0462	0.0165	0.9585
39.3063	-19.7838	362.5568	21.8776	-123.6429	-33.1034	437.7952	17.4012	454.1337	-42.03	172.9185	35.0966	473.0859	-0.0592	0.0182	-0.0073	-0.0462	0.0165	0.9585
39.3197	-21.1532	387.9235	25.018	-132.1965	-37.0786	466.7327	17.775	416.5668	-38.1061	158.4333	31.1927	433.8772	-0.0592	0.0182	-0.0073	-0.0462	0.0165	0.9585
39.3331	-21.8877	416.7076	27.4244	-141.9668	-39.9486	499.3612	18.1724	378.2993	-33.6912	143.8058	26.7846	393.9058	-0.0592	0.0182	-0.0073	-0.0462	0.0165	0.9585
39.3466	-22.018	448.6708	29.4865	-152.8381	-42.1827	535.4108	18.2985	339.1572	-28.9934	128.9325	22.1719	353.0526	-0.0592	0.0182	-0.0073	-0.0462	0.0165	0.9585
39.36	-21.6962	483.1029	31.6204	-164.5252	-44.3201	574.0508	17.883	299.1212	-24.2853	113.7661	17.7172	311.3331	-0.0592	0.0182	-0.0073	-0.0462	0.0165	0.9585
39.3734	-21.1258	519.1855	34.2232	-176.7128	-46.8764	614.2939	16.6816	258.5312	-19.8118	98.3994	13.7492	269.1174	-0.0592	0.0182	-0.0073	-0.0462	0.0165	0.9585
39.3869	-20.5046	556.4844	37.4335	-189.2287	-50.0701	655.6228	14.59	218.1644	-15.7609	83.1028	10.4986	227.2046	-0.0592	0.0182	-0.0073	-0.0462	0.0165	0.9585
39.4003	-19.9231	594.8794	41.118	-202.0241	-53.7781	697.8582	11.6981	179.1694	-12.2415	68.2994	8.0551	186.7606	-0.0592	0.0182	-0.0073	-0.0462	0.0165	0.9585
39.4137	-19.4347	634.0721	45.0411	-214.9902	-57.7425	740.6255	8.2621	142.8263	-9.2939	54.4728	6.3755	149.0868	-0.0592	0.0182	-0.0073	-0.0462	0.0165	0.9585
39.4271	-19.0615	673.1622	48.959	-227.8145	-61.6918	782.877	4.6756	110.2381	-6.8916	42.0517	5.2989	115.2896	-0.0592	0.0182	-0.0073	-0.0462	0.0165	0.9585
39.4406	-18.7729	710.6707	52.7733	-239.9823	-65.501	822.919	1.3307	82.1292	-4.9901	31.3229	4.6356	86.105	-0.0592	0.0182	-0.0073	-0.0462	0.0165	0.9585
39.454	-18.508	744.8503	56.4204	-250.8905	-69.084	858.7722	-1.4488	58.7448	-3.5145	22.3922	4.1877	61.7785	-0.0592	0.0182	-0.0073	-0.0462	0.0165	0.9585
39.4674	-18.1641	774.0661	59.8869	-259.9847	-72.3943	888.6098	-3.465	39.9274	-2.3943	15.2069	3.8073	42.156	-0.0592	0.0182	-0.0073	-0.0462	0.0165	0.9585
39.4809	-17.6574	797.0942	63.0353	-266.8722	-75.2583	911.0966	-4.6284	25.2826	-1.5558	9.6183	3.3887	26.8419	-0.0592	0.0182	-0.0073	-0.0462	0.0165	0.9585
39.4943	-16.9143	813.2769	65.758	-271.364	-77.534	925.5665	-4.9358	14.3089	-0.94936	5.4359	2.8828	15.3237	-0.0592	0.0182	-0.0073	-0.0462	0.0165	0.9585
39.5077	-15.887	822.4817	67.8833	-273.4641	-79.031	931.9521	-4.5355	6.5221	-0.52813	2.4716	2.2999	7.1155	-0.0592	0.0182	-0.0073	-0.0462	0.0165	0.9585
39.5211	-14.5921	825.0096	69.3363	-273.3233	-79.6761	930.6934	-3.7311	1.467	-0.25844	0.54811	1.7228	1.7527	-0.0592	0.0182	-0.0073	-0.0462	0.0165	0.9585
39.5346	-13.0396	821.5141	70.0206	-271.2143	-79.3819	922.5885	-2.8197	-1.3985	-0.10568	-0.54429	1.2295	-1.3085	-0.0592	0.0182	-0.0073	-0.0462	0.0165	0.9585
39.548	-11.2398	812.9987	69.9491	-267.5156	-78.1719	908.8363	-1.9814	-2.686	-0.036906	-1.0376	0.85358	-2.6963	-0.0592	0.0182	-0.0073	-0.0462	0.0165	0.9585
39.5614	-9.1884	800.7398	69.1162	-262.6877	-76.0562	890.9049	-1.288	-2.9469	-0.020872	-1.1399	0.59124	-2.9922	-0.0592	0.0182	-0.0073	-0.0462	0.0165	0.9585
39.5749	-6.8955	786.1419	67.6679	-257.2134	-73.2026	870.388	-0.76695	-2.6012	-0.031494	-1.0131	0.42674	-2.636	-0.0592	0.0182	-0.0073	-0.0462	0.0165	0.9585
39.5883	-4.3698	770.589	65.7399	-251.5556	-69.7751	848.8373	-0.39713	-1.9798	-0.052026	-0.78015	0.3324	-1.9855	-0.0592	0.0182	-0.0073	-0.0462	0.0165	0.9585
39.6017	-1.6389	755.3591	63.5621	-246.1237	-66.0269	827.6875	-0.17085	-1.2895	-0.071006	-0.51958	0.28444	-1.2434	-0.0592	0.0182	-0.0073	-0.0462	0.0165	0.9585
39.6151	1.2309	741.5511	61.3036	-241.2574	-62.1649	808.1668	-0.045673	-0.6514	-0.092646	-0.27669	0.26893	-0.53838	-0.0592	0.0182	-0.0073	-0.0462	0.0165	0.9585
39.6286	4.1348	730.0181	59.1612	-237.2058	-58.4297	791.2415	0.0006439	-0.13181	-0.11571	-0.075563	0.27495	0.043996	-0.0592	0.0182	-0.0073	-0.0462	0.0165	0.9585
39.642	6.9525	721.3386	57.2433	-234.1252	-54.9789	777.575	-0.028541	0.24582	-0.14325	0.072835	0.30521	0.46831	-0.0592	0.0182	-0.0073	-0.0462	0.0165	0.9585
39.6554	9.5538	715.7986	55.642	-232.0744	-51.9492	767.5161	-0.10199	0.46995	-0.17762	0.16342	0.35657	0.70524	-0.0592	0.0182	-0.0073	-0.0462	0.0165	0.9585
